<svg width="20" height="19" viewBox="0 0 20 19" fill="none" xmlns="http://www.w3.org/2000/svg">
<path fill-rule="evenodd" clip-rule="evenodd" d="M6.19897 0.0201649C5.24149 0.102169 4.1311 0.478378 3.27314 1.01144C2.26128 1.64011 1.36367 2.56678 0.810835 3.55351C0.43325 4.22741 0.150356 5.06241 0.0391113 5.83144C-0.00823423 6.15879 -0.0139967 7.20856 0.0295221 7.58194C0.181548 8.88644 0.762066 10.1593 1.65028 11.1358C2.72172 12.3136 3.89134 13.0132 5.38191 13.3678C5.87467 13.485 6.1324 13.5158 6.75143 13.5314C7.30783 13.5455 7.90755 13.5174 8.24093 13.4618C9.14094 13.3117 10.2117 12.8951 10.999 12.3887L11.2772 12.2098L11.4005 12.3249C11.4683 12.3882 12.1345 12.9879 12.881 13.6576C14.3723 14.9955 15.3152 15.8425 15.8617 16.3353C16.6677 17.062 18.1952 18.4137 18.5896 18.7491C18.8337 18.9568 18.9695 19.0112 19.2112 18.9982C19.5224 18.9815 19.79 18.808 19.9282 18.5335C19.9908 18.4091 19.9994 18.3705 20 18.2101C20.001 17.9247 19.9582 17.859 19.458 17.3767C19.2303 17.1572 18.7684 16.7269 18.4317 16.4207C17.8388 15.8814 17.471 15.5494 15.6065 13.8707C13.5734 12.0403 12.6905 11.2209 12.6003 11.0811L12.5562 11.0126L12.7546 10.7383C13.443 9.78667 13.8517 8.83213 13.9913 7.84979C14.0798 7.22703 14.0909 6.28489 14.0158 5.78325C13.932 5.2246 13.7135 4.4964 13.4776 3.98974C12.6702 2.25582 11.0237 0.838965 9.16543 0.279056C8.61353 0.112776 8.33244 0.0587136 7.81059 0.0185578C7.47944 -0.00691989 6.50383 -0.00595564 6.19897 0.0201649ZM7.95027 0.862279C8.76745 0.982317 9.62954 1.29259 10.3239 1.71658C12.0921 2.79633 13.1343 4.54975 13.218 6.58555C13.2679 7.80033 12.8917 9.04113 12.1556 10.089C11.9058 10.4446 11.7181 10.6638 11.4021 10.969C10.8985 11.4553 10.3896 11.8067 9.7439 12.1139C9.18034 12.382 8.57052 12.5689 7.98513 12.653C7.61211 12.7066 6.52979 12.7068 6.12847 12.6534C4.37399 12.4197 2.74802 11.4001 1.79417 9.93559C1.29495 9.16912 0.958456 8.25522 0.875579 7.44077C0.842629 7.11715 0.862964 6.18054 0.909865 5.86015C1.04687 4.92418 1.48453 3.93636 2.11012 3.15096C2.80293 2.28121 3.70621 1.62284 4.76477 1.2161C5.1784 1.05719 5.8306 0.890135 6.29533 0.824094C6.46235 0.800352 7.72747 0.829537 7.95027 0.862279Z" fill="#BBBBBB"/>
</svg>
